<svg xmlns="http://www.w3.org/2000/svg" xmlns:xlink="http://www.w3.org/1999/xlink" width="500" zoomAndPan="magnify" viewBox="0 0 375 165.000002" height="220" preserveAspectRatio="xMidYMid meet" version="1.0"><defs><g/><clipPath id="041f42c6cd"><path d="M 10.558594 7.066406 L 142 7.066406 L 142 157 L 10.558594 157 Z M 10.558594 7.066406 " clip-rule="nonzero"/></clipPath></defs><g clip-path="url(#041f42c6cd)"><path fill="#fffaf9" d="M 71.59375 40.992188 C 72.742188 42.957031 74.464844 58.410156 74.910156 62.242188 L 61.421875 62.132812 C 61.996094 59.910156 63.109375 58.703125 63.332031 56.242188 C 61.421875 56.742188 54.621094 59.058594 53.25 58.296875 Z M 63.164062 56.148438 Z M 63.164062 56.148438 Z M 10.617188 44.640625 L 10.582031 110.175781 C 15.15625 106.675781 20.046875 103.152344 24.605469 99.578125 C 27.070312 97.652344 29.277344 95.78125 31.738281 93.910156 C 34.074219 92.148438 36.707031 89.777344 39.003906 88.5 L 30.757812 107.769531 C 36.945312 103.875 59.234375 89.257812 65 87.628906 L 63.164062 94.78125 C 65.90625 94.484375 73.949219 91.019531 80.449219 88.480469 C 90.011719 84.773438 90.640625 84.441406 100.3125 87.3125 L 121.007812 93.480469 C 125.363281 94.871094 127.863281 97.949219 123.769531 101.355469 C 120.992188 103.691406 116.804688 106.824219 115.007812 106.804688 C 106.371094 106.710938 67.203125 105.710938 62.71875 107.710938 C 62.996094 107.898438 62.8125 107.84375 63.703125 108.25 C 64.21875 108.472656 64.515625 108.566406 65.074219 108.769531 C 67.203125 109.492188 71.148438 110.398438 72.28125 111.363281 C 70.316406 114.457031 52.230469 141.191406 51.34375 143.472656 C 54.53125 144.675781 69.40625 153.792969 73.800781 156.273438 C 76.835938 157.980469 79.894531 154.8125 85.136719 151.867188 L 131.699219 125 C 143.707031 118.070312 140.835938 121.832031 140.835938 106.117188 C 138.851562 108.972656 136.460938 111.84375 132.847656 114.585938 L 102.167969 132.355469 C 95.199219 136.375 88.511719 140.246094 81.597656 144.214844 C 73.445312 148.902344 77.914062 148.53125 63.40625 140.582031 C 62.980469 140.339844 62.609375 140.15625 62.238281 139.914062 L 61.550781 139.359375 C 63.738281 135.746094 73.390625 124.738281 79.433594 118.902344 C 82.027344 116.382812 82.675781 115.179688 86.121094 114.9375 C 92.773438 114.492188 110.171875 114.699219 115.042969 114.585938 C 123.789062 114.402344 137.40625 101.617188 140.796875 92.90625 C 135.683594 91.296875 127.902344 86.699219 122.492188 84.238281 C 111.984375 79.4375 112.96875 81.4375 108.59375 70.710938 C 106.667969 65.96875 102.628906 64.558594 97.089844 61.652344 C 95.273438 60.6875 94.011719 60.335938 93.289062 58.59375 C 91.476562 54.148438 90.660156 39.398438 90.4375 33.933594 C 82.582031 36.542969 81.953125 38.210938 80.839844 45.863281 C 78.765625 39.417969 76.78125 33.117188 75.058594 26.558594 C 72.6875 27.855469 69.59375 30.765625 67.425781 32.542969 L 19.160156 71.839844 C 18.527344 68.191406 18.917969 54.757812 18.917969 50.125 C 18.917969 48.644531 20.753906 48.253906 21.957031 47.550781 L 46.894531 33.191406 C 50.359375 31.226562 74.300781 16.996094 75.355469 16.886719 C 76.910156 16.699219 112.117188 37.546875 118.15625 41.046875 L 132.496094 49.089844 L 132.496094 81.679688 L 140.761719 85.699219 L 140.835938 44.640625 C 139.277344 43.234375 134.941406 41.027344 132.980469 39.917969 C 130.367188 38.453125 127.53125 36.824219 124.882812 35.230469 C 119.433594 31.96875 114.023438 28.890625 108.390625 25.667969 C 104.980469 23.722656 76.449219 7.066406 75.707031 7.066406 L 26.8125 35.0625 C 23.996094 36.75 12.042969 43.324219 10.617188 44.640625 Z M 10.617188 44.640625 " fill-opacity="1" fill-rule="evenodd"/></g><g fill="#ffffff" fill-opacity="1"><g transform="translate(161.288689, 139.368263)"><g><path d="M 28.96875 -52.144531 C 28.304688 -52.144531 27.644531 -51.644531 27.476562 -50.652344 L 20.03125 -13.160156 L 12.910156 -50.652344 C 12.746094 -51.644531 11.917969 -52.144531 11.257812 -52.144531 L 3.722656 -52.144531 C 3.0625 -52.144531 2.234375 -51.644531 2.234375 -50.652344 L 13.324219 -0.992188 C 13.574219 -0.332031 14.234375 0 14.734375 0 L 25.742188 0 C 26.238281 0 26.898438 -0.332031 27.148438 -0.992188 L 33.519531 -33.4375 L 39.894531 -0.992188 C 40.140625 -0.332031 40.804688 0 41.300781 0 L 52.308594 0 C 52.804688 0 53.46875 -0.332031 53.714844 -0.992188 L 64.804688 -50.652344 C 64.804688 -51.644531 63.980469 -52.144531 63.316406 -52.144531 L 55.785156 -52.144531 C 55.121094 -52.144531 54.292969 -51.644531 54.128906 -50.652344 L 47.011719 -13.160156 L 39.5625 -50.652344 C 39.398438 -51.644531 38.734375 -52.144531 38.074219 -52.144531 Z M 28.96875 -52.144531 "/></g></g></g><g fill="#ffffff" fill-opacity="1"><g transform="translate(230.232033, 139.368263)"><g><path d="M 23.917969 -52.804688 C 4.386719 -52.804688 4.304688 -36.335938 4.304688 -36.335938 L 4.304688 -15.808594 C 4.304688 -15.808594 4.386719 0.664062 23.917969 0.664062 C 43.453125 0.664062 43.535156 -15.808594 43.535156 -15.808594 L 43.535156 -36.335938 C 43.535156 -36.335938 43.453125 -52.804688 23.917969 -52.804688 Z M 23.917969 -9.105469 C 21.269531 -9.105469 14.980469 -9.933594 14.980469 -18.125 L 14.980469 -34.015625 C 14.980469 -42.210938 21.269531 -43.039062 23.917969 -43.039062 C 26.566406 -43.039062 32.859375 -42.210938 32.859375 -34.015625 L 32.859375 -18.125 C 32.859375 -9.933594 26.566406 -9.105469 23.917969 -9.105469 Z M 23.917969 -9.105469 "/></g></g></g><g fill="#ffffff" fill-opacity="1"><g transform="translate(279.973904, 139.368263)"><g><path d="M 35.839844 0 C 36.832031 0 37.328125 -0.828125 37.328125 -1.488281 L 37.328125 -8.277344 C 37.328125 -8.9375 36.832031 -9.765625 35.839844 -9.765625 L 15.808594 -9.765625 L 15.808594 -50.652344 C 15.808594 -51.644531 14.980469 -52.144531 14.320312 -52.144531 L 6.621094 -52.144531 C 5.960938 -52.144531 5.132812 -51.644531 5.132812 -50.652344 L 5.132812 -1.488281 C 5.132812 -0.496094 5.960938 0 6.621094 0 Z M 35.839844 0 "/></g></g></g><g fill="#ffffff" fill-opacity="1"><g transform="translate(323.508401, 139.368263)"><g><path d="M 6.621094 -52.144531 C 5.960938 -52.144531 5.132812 -51.644531 5.132812 -50.652344 L 5.132812 -1.488281 C 5.132812 -0.496094 5.960938 0 6.621094 0 L 14.320312 0 C 14.980469 0 15.808594 -0.496094 15.808594 -1.488281 L 15.808594 -19.203125 L 32.03125 -19.203125 C 33.023438 -19.203125 33.519531 -20.03125 33.519531 -20.691406 L 33.519531 -27.476562 C 33.519531 -28.140625 33.023438 -28.96875 32.03125 -28.96875 L 15.808594 -28.96875 L 15.808594 -42.375 L 35.839844 -42.375 C 36.832031 -42.375 37.328125 -43.203125 37.328125 -43.867188 L 37.328125 -50.652344 C 37.328125 -51.316406 36.832031 -52.144531 35.839844 -52.144531 Z M 6.621094 -52.144531 "/></g></g></g><g fill="#fffaf9" fill-opacity="1"><g transform="translate(164.062367, 73.680542)"><g><path d="M 18.410156 -6.152344 C 18.871094 -6.152344 19.054688 -6.519531 19.191406 -6.703125 L 24.378906 -16.988281 L 24.378906 -0.828125 C 24.378906 -0.277344 24.839844 0 25.207031 0 L 29.476562 0 C 29.84375 0 30.300781 -0.277344 30.300781 -0.828125 L 30.300781 -28.097656 C 30.300781 -28.648438 29.84375 -28.925781 29.476562 -28.925781 L 25.160156 -28.925781 C 24.792969 -28.925781 24.378906 -28.601562 24.148438 -28.097656 L 16.574219 -13.039062 L 9 -28.097656 C 8.769531 -28.601562 8.355469 -28.925781 7.988281 -28.925781 L 3.671875 -28.925781 C 3.304688 -28.925781 2.847656 -28.648438 2.847656 -28.097656 L 2.847656 -0.828125 C 2.847656 -0.277344 3.304688 0 3.671875 0 L 7.941406 0 C 8.308594 0 8.769531 -0.277344 8.769531 -0.828125 L 8.769531 -16.988281 L 13.957031 -6.703125 C 14.09375 -6.519531 14.277344 -6.152344 14.738281 -6.152344 Z M 18.410156 -6.152344 "/></g></g></g><g fill="#fffaf9" fill-opacity="1"><g transform="translate(198.265871, 73.680542)"><g><path d="M 8.769531 -5.417969 L 8.769531 -11.617188 L 17.769531 -11.617188 C 18.320312 -11.617188 18.59375 -12.074219 18.59375 -12.441406 L 18.59375 -16.207031 C 18.59375 -16.574219 18.320312 -17.03125 17.769531 -17.03125 L 8.769531 -17.03125 L 8.769531 -23.507812 L 19.878906 -23.507812 C 20.429688 -23.507812 20.707031 -23.964844 20.707031 -24.332031 L 20.707031 -28.097656 C 20.707031 -28.464844 20.429688 -28.925781 19.878906 -28.925781 L 3.671875 -28.925781 C 3.304688 -28.925781 2.847656 -28.648438 2.847656 -28.097656 L 2.847656 -0.828125 C 2.847656 -0.277344 3.304688 0 3.671875 0 L 19.878906 0 C 20.429688 0 20.707031 -0.460938 20.707031 -0.828125 L 20.707031 -4.589844 C 20.707031 -4.957031 20.429688 -5.417969 19.878906 -5.417969 Z M 8.769531 -5.417969 "/></g></g></g><g fill="#fffaf9" fill-opacity="1"><g transform="translate(222.874045, 73.680542)"><g><path d="M 2.296875 -28.925781 C 1.746094 -28.925781 1.46875 -28.464844 1.46875 -28.097656 L 1.46875 -24.332031 C 1.46875 -23.964844 1.746094 -23.507812 2.296875 -23.507812 L 8.722656 -23.507812 L 8.722656 -0.828125 C 8.722656 -0.277344 9.183594 0 9.550781 0 L 13.820312 0 C 14.1875 0 14.644531 -0.277344 14.644531 -0.828125 L 14.644531 -23.507812 L 21.074219 -23.507812 C 21.625 -23.507812 21.898438 -23.964844 21.898438 -24.332031 L 21.898438 -28.097656 C 21.898438 -28.464844 21.625 -28.925781 21.074219 -28.925781 Z M 2.296875 -28.925781 "/></g></g></g><g fill="#fffaf9" fill-opacity="1"><g transform="translate(247.298575, 73.680542)"><g><path d="M 24.289062 -28.097656 C 24.289062 -28.648438 23.828125 -28.925781 23.460938 -28.925781 L 19.191406 -28.925781 C 18.824219 -28.925781 18.363281 -28.648438 18.363281 -28.097656 L 18.363281 -15.472656 L 8.769531 -15.472656 L 8.769531 -28.097656 C 8.769531 -28.648438 8.308594 -28.925781 7.941406 -28.925781 L 3.671875 -28.925781 C 3.304688 -28.925781 2.847656 -28.648438 2.847656 -28.097656 L 2.847656 -0.828125 C 2.847656 -0.277344 3.304688 0 3.671875 0 L 7.941406 0 C 8.308594 0 8.769531 -0.277344 8.769531 -0.828125 L 8.769531 -10.054688 L 18.363281 -10.054688 L 18.363281 -0.828125 C 18.363281 -0.277344 18.824219 0 19.191406 0 L 23.460938 0 C 23.828125 0 24.289062 -0.277344 24.289062 -0.828125 Z M 24.289062 -28.097656 "/></g></g></g><g fill="#fffaf9" fill-opacity="1"><g transform="translate(275.487785, 73.680542)"><g><path d="M 13.269531 -29.292969 C 2.433594 -29.292969 2.386719 -20.15625 2.386719 -20.15625 L 2.386719 -8.769531 C 2.386719 -8.769531 2.433594 0.367188 13.269531 0.367188 C 24.105469 0.367188 24.148438 -8.769531 24.148438 -8.769531 L 24.148438 -20.15625 C 24.148438 -20.15625 24.105469 -29.292969 13.269531 -29.292969 Z M 13.269531 -5.050781 C 11.800781 -5.050781 8.308594 -5.507812 8.308594 -10.054688 L 8.308594 -18.871094 C 8.308594 -23.414062 11.800781 -23.875 13.269531 -23.875 C 14.738281 -23.875 18.226562 -23.414062 18.226562 -18.871094 L 18.226562 -10.054688 C 18.226562 -5.507812 14.738281 -5.050781 13.269531 -5.050781 Z M 13.269531 -5.050781 "/></g></g></g><g fill="#fffaf9" fill-opacity="1"><g transform="translate(303.080162, 73.680542)"><g><path d="M 11.660156 -23.507812 C 13.128906 -23.507812 16.621094 -23.140625 16.621094 -18.59375 L 16.621094 -10.332031 C 16.621094 -5.785156 13.128906 -5.417969 11.660156 -5.417969 L 8.769531 -5.417969 L 8.769531 -23.507812 Z M 11.800781 0 C 22.496094 0 22.542969 -9.183594 22.542969 -9.183594 L 22.542969 -19.742188 C 22.542969 -19.742188 22.496094 -28.925781 11.800781 -28.925781 L 3.671875 -28.925781 C 3.304688 -28.925781 2.847656 -28.648438 2.847656 -28.097656 L 2.847656 -0.828125 C 2.847656 -0.277344 3.304688 0 3.671875 0 Z M 11.800781 0 "/></g></g></g></svg>